<svg width="628" height="488" viewBox="0 0 628 488" fill="none" xmlns="http://www.w3.org/2000/svg">
<path d="M357.5 239C371.583 239 383 227.583 383 213.5C383 199.417 371.583 188 357.5 188C343.417 188 332 199.417 332 213.5C332 227.583 343.417 239 357.5 239Z" fill="#E6E6E6"/>
<path d="M420.233 245.812L393.375 219.275C395.433 216.111 396.828 212.571 397.477 208.865C398.126 205.159 398.015 201.361 397.151 197.698C396.288 194.035 394.689 190.58 392.449 187.538C390.209 184.497 387.374 181.93 384.112 179.991C377.97 176.366 370.674 175.152 363.668 176.59C356.663 178.027 350.46 182.012 346.287 187.755C342.447 193.074 340.603 199.549 341.072 206.066C341.54 212.583 344.292 218.735 348.854 223.465C353.416 228.195 359.503 231.207 366.069 231.983C372.634 232.759 379.269 231.25 384.831 227.717L411.689 254.254C412.822 255.372 414.359 256 415.96 256C417.562 256 419.098 255.371 420.231 254.252C421.363 253.133 422 251.615 422 250.032C422 248.45 421.365 246.932 420.233 245.812V245.812ZM383.828 218.285C380.5 221.573 376.121 223.619 371.438 224.075C366.754 224.531 362.055 223.368 358.142 220.785C354.228 218.201 351.343 214.357 349.977 209.907C348.61 205.457 348.848 200.677 350.649 196.381C352.45 192.084 355.703 188.538 359.854 186.346C364.004 184.154 368.796 183.452 373.412 184.359C378.028 185.266 382.183 187.727 385.169 191.321C388.154 194.916 389.786 199.422 389.786 204.072C389.79 206.712 389.265 209.327 388.243 211.766C387.22 214.205 385.72 216.42 383.828 218.285V218.285Z" fill="#3F3D56"/>
<path d="M614.127 285.323C682.472 360.975 484.353 470 324.267 470C164.182 470 53.4282 385.525 34.4074 285.323C-11.7114 42.3688 427.351 -112.052 324.267 100.647C174.011 410.68 560.305 225.746 614.127 285.323Z" fill="#E6E6E6"/>
<path d="M583.127 303.323C651.472 378.975 453.353 488 293.267 488C133.182 488 22.4282 403.525 3.40743 303.323C-42.7114 60.3688 396.351 -94.0519 293.267 118.647C143.011 428.68 529.305 243.746 583.127 303.323Z" fill="#3F3D56"/>
<path d="M95.6291 125.632C47.6879 123.554 10.5164 113.371 11.0048 102.449C11.2975 95.9017 24.8654 90.6366 48.2291 88.0046C48.3128 87.9946 48.3976 88.001 48.4786 88.0234C48.5597 88.0459 48.6355 88.0838 48.7016 88.1352C48.7677 88.1866 48.8229 88.2504 48.8639 88.3228C48.9049 88.3953 48.9309 88.475 48.9405 88.5574C48.95 88.6398 48.943 88.7233 48.9197 88.803C48.8963 88.8827 48.8572 88.957 48.8046 89.0218C48.752 89.0865 48.6869 89.1404 48.613 89.1803C48.5392 89.2202 48.458 89.2452 48.3743 89.2541C26.3656 91.7337 12.5354 96.8111 12.2808 102.505C11.8392 112.381 50.0337 122.396 95.6853 124.376C141.337 126.355 180.278 119.684 180.719 109.808C180.975 104.09 167.565 97.8178 145.723 93.4392C145.641 93.4229 145.562 93.3908 145.493 93.3446C145.423 93.2985 145.363 93.2393 145.316 93.1703C145.27 93.1014 145.238 93.0241 145.222 92.9429C145.206 92.8617 145.206 92.7781 145.223 92.697C145.24 92.616 145.272 92.5389 145.319 92.4704C145.366 92.4018 145.427 92.3431 145.497 92.2975C145.567 92.252 145.646 92.2205 145.728 92.2049C145.811 92.1893 145.896 92.1899 145.978 92.2066C169.161 96.8543 182.289 103.29 181.995 109.863C181.507 120.784 143.57 127.711 95.6291 125.632Z" fill="#186DFF"/>
<path d="M53 128C57.0124 135.542 62.956 141.91 70.2363 146.465C77.5165 151.021 85.8781 153.605 94.4844 153.958C103.091 154.312 111.64 152.422 119.277 148.48C126.913 144.537 133.37 138.679 138 131.491C109.623 131.87 81.2473 130.704 53 128V128Z" fill="#186DFF"/>
<path d="M143.459 118.472C145.889 111.149 146.589 103.358 145.504 95.7157C144.419 88.0736 141.579 80.7901 137.208 74.4417C132.838 68.0934 127.057 62.8543 120.323 59.1392C113.589 55.4241 106.087 53.3349 98.4101 53.0371C90.7336 52.7392 83.0936 54.2408 76.0945 57.423C69.0954 60.6052 62.9295 65.3806 58.0847 71.3714C53.24 77.3622 49.8493 84.4039 48.1811 91.9391C46.513 99.4744 46.6131 107.296 48.4735 114.786C79.8435 120.137 111.772 121.376 143.459 118.472V118.472Z" fill="#186DFF"/>
<path d="M223 98C226.314 98 229 95.0899 229 91.5C229 87.9102 226.314 85 223 85C219.686 85 217 87.9102 217 91.5C217 95.0899 219.686 98 223 98Z" fill="#186DFF"/>
<path d="M347 425C349.209 425 351 423.433 351 421.5C351 419.567 349.209 418 347 418C344.791 418 343 419.567 343 421.5C343 423.433 344.791 425 347 425Z" fill="#E6E6E6"/>
<path d="M256 363C257.105 363 258 362.105 258 361C258 359.895 257.105 359 256 359C254.895 359 254 359.895 254 361C254 362.105 254.895 363 256 363Z" fill="#E6E6E6"/>
<path d="M544 344C545.105 344 546 343.105 546 342C546 340.895 545.105 340 544 340C542.895 340 542 340.895 542 342C542 343.105 542.895 344 544 344Z" fill="#E6E6E6"/>
<path d="M454 401C455.105 401 456 400.105 456 399C456 397.895 455.105 397 454 397C452.895 397 452 397.895 452 399C452 400.105 452.895 401 454 401Z" fill="#E6E6E6"/>
<path d="M360 332C361.105 332 362 331.105 362 330C362 328.895 361.105 328 360 328C358.895 328 358 328.895 358 330C358 331.105 358.895 332 360 332Z" fill="#E6E6E6"/>
<path d="M238 143C239.105 143 240 142.105 240 141C240 139.895 239.105 139 238 139C236.895 139 236 139.895 236 141C236 142.105 236.895 143 238 143Z" fill="#E6E6E6"/>
<path d="M245 446C246.105 446 247 445.328 247 444.5C247 443.672 246.105 443 245 443C243.895 443 243 443.672 243 444.5C243 445.328 243.895 446 245 446Z" fill="#E6E6E6"/>
<path d="M150 406C151.105 406 152 405.105 152 404C152 402.895 151.105 402 150 402C148.895 402 148 402.895 148 404C148 405.105 148.895 406 150 406Z" fill="#E6E6E6"/>
<path d="M450 337C451.105 337 452 336.105 452 335C452 333.895 451.105 333 450 333C448.895 333 448 333.895 448 335C448 336.105 448.895 337 450 337Z" fill="#E6E6E6"/>
<path d="M225 232.401C225 249.567 198.387 289.567 190.61 300.889C190.376 301.232 190.061 301.512 189.693 301.705C189.325 301.899 188.916 302 188.5 302C188.084 302 187.675 301.899 187.307 301.705C186.939 301.512 186.624 301.232 186.39 300.889C178.613 289.567 152 249.567 152 232.401C152 227.621 152.944 222.887 154.778 218.471C156.613 214.054 159.301 210.042 162.691 206.662C166.08 203.281 170.104 200.6 174.532 198.771C178.96 196.942 183.707 196 188.5 196C193.293 196 198.04 196.942 202.468 198.771C206.896 200.6 210.92 203.281 214.309 206.662C217.699 210.042 220.387 214.054 222.222 218.471C224.056 222.887 225 227.621 225 232.401V232.401Z" fill="white"/>
<path d="M188.5 248C198.717 248 207 239.717 207 229.5C207 219.283 198.717 211 188.5 211C178.283 211 170 219.283 170 229.5C170 239.717 178.283 248 188.5 248Z" fill="#186DFF"/>
<path d="M188.5 322C200.374 322 210 319.985 210 317.5C210 315.015 200.374 313 188.5 313C176.626 313 167 315.015 167 317.5C167 319.985 176.626 322 188.5 322Z" fill="white"/>
<path d="M522.2 203.566C522.036 203.878 521.898 204.202 521.786 204.536L490.889 212.953L485.321 207.611L476 214.796L484.919 225.193C485.64 226.033 486.619 226.621 487.709 226.869C488.8 227.117 489.943 227.011 490.967 226.568L524.342 212.122C525.475 212.893 526.819 213.307 528.198 213.31C529.576 213.313 530.923 212.905 532.058 212.139C533.194 211.373 534.065 210.287 534.556 209.024C535.046 207.761 535.133 206.381 534.804 205.069C534.476 203.756 533.747 202.573 532.716 201.676C531.685 200.779 530.4 200.212 529.032 200.049C527.663 199.886 526.277 200.135 525.057 200.763C523.836 201.392 522.84 202.369 522.2 203.566H522.2Z" fill="#FFB8B8"/>
<path d="M489.917 213.446L478.734 222.392C478.416 222.646 478.048 222.828 477.655 222.923C477.263 223.018 476.855 223.025 476.46 222.944C476.064 222.863 475.691 222.695 475.364 222.452C475.038 222.208 474.766 221.896 474.567 221.535L467.617 208.893C466.359 207.212 465.8 205.088 466.064 202.985C466.328 200.882 467.392 198.972 469.024 197.674C470.656 196.377 472.722 195.797 474.769 196.063C476.816 196.329 478.677 197.418 479.944 199.092L490.132 209.085C490.424 209.371 490.652 209.719 490.801 210.104C490.95 210.489 491.017 210.902 490.996 211.316C490.976 211.73 490.869 212.134 490.683 212.502C490.497 212.87 490.236 213.192 489.917 213.446V213.446Z" fill="#186DFF"/>
<path d="M525.288 199.177L536.822 204.415C537.305 204.634 537.682 205.038 537.87 205.538C538.058 206.037 538.041 206.592 537.824 207.08L536.459 210.143C536.619 210.216 536.744 210.351 536.807 210.518C536.87 210.684 536.864 210.869 536.792 211.031L536.246 212.256C536.173 212.419 536.04 212.545 535.875 212.608C535.71 212.671 535.527 212.666 535.366 212.594L534.82 213.819C534.98 213.892 535.106 214.027 535.168 214.194C535.231 214.36 535.226 214.545 535.154 214.707L534.607 215.933C534.535 216.095 534.401 216.221 534.236 216.284C534.071 216.347 533.888 216.342 533.727 216.27L526.353 232.812C526.135 233.299 525.735 233.679 525.24 233.869C524.745 234.059 524.195 234.042 523.712 233.823L512.178 228.585C511.695 228.366 511.318 227.962 511.13 227.462C510.942 226.963 510.959 226.408 511.176 225.92L522.647 200.189C522.865 199.701 523.265 199.321 523.76 199.131C524.255 198.941 524.805 198.958 525.288 199.177V199.177Z" fill="#3F3D56"/>
<path d="M514.141 226.723L523.513 230.835C523.982 231.039 524.516 231.055 524.997 230.877C525.478 230.7 525.868 230.345 526.081 229.889L530.41 220.509L531.914 217.258L535.831 208.772C536.04 208.315 536.056 207.797 535.874 207.329C535.692 206.861 535.328 206.483 534.86 206.276L531.914 204.982L525.481 202.164C525.012 201.96 524.478 201.946 523.998 202.124C523.518 202.303 523.13 202.66 522.919 203.117L519.13 211.32L514.815 220.66L513.17 224.227C512.96 224.684 512.944 225.203 513.126 225.67C513.308 226.138 513.673 226.517 514.141 226.723V226.723Z" fill="#F2F2F2"/>
<path d="M494.001 346L502.132 345.999L506 316L494 316.001L494.001 346Z" fill="#FFB8B8"/>
<path d="M492 343.001L507.88 343H507.88C509.209 343 510.525 343.25 511.753 343.737C512.981 344.224 514.096 344.937 515.036 345.836C515.976 346.736 516.721 347.803 517.23 348.978C517.738 350.153 518 351.413 518 352.684V352.999L492 353L492 343.001Z" fill="#2F2E41"/>
<path d="M515.001 344L522.454 343.999L526 314L515 314.001L515.001 344Z" fill="#FFB8B8"/>
<path d="M513 341.001L528.269 341H528.269C529.547 341 530.813 341.25 531.993 341.737C533.174 342.224 534.246 342.937 535.15 343.836C536.054 344.736 536.77 345.803 537.259 346.978C537.748 348.153 538 349.413 538 350.684V350.999L513 351L513 341.001Z" fill="#2F2E41"/>
<path d="M459.54 275.283C461.207 280.233 464.368 284.541 468.587 287.611C472.805 290.681 477.872 292.362 483.085 292.421L483.481 292.427C487.52 292.542 492.261 291.238 496.912 289.365C506.101 285.664 514.925 279.739 517.267 278.109L513.298 316.328L511.69 331.823C511.65 332.224 511.693 332.629 511.818 333.012C511.943 333.395 512.147 333.747 512.416 334.046C512.686 334.346 513.015 334.585 513.382 334.749C513.749 334.914 514.147 334.999 514.549 335H524.458C525.093 335 525.711 334.79 526.214 334.401C526.718 334.013 527.078 333.468 527.24 332.852L543.6 270.431C544.091 268.563 544.13 266.604 543.715 264.718C543.301 262.831 542.443 261.071 541.214 259.582C539.985 258.093 538.419 256.919 536.647 256.157C534.875 255.395 532.948 255.066 531.024 255.199L497.04 257.532L499.414 248.02L469.08 246L468.99 246.064C468.263 246.594 467.555 247.151 466.878 247.732C465.187 249.165 463.688 250.811 462.418 252.629C460.146 255.891 458.698 259.656 458.196 263.601C457.695 267.547 458.156 271.555 459.54 275.283Z" fill="#2F2E41"/>
<path d="M459.535 274.622C461.197 279.565 464.347 283.867 468.552 286.933C472.756 289.999 477.806 291.677 483.002 291.736C487.971 289.212 492.767 286.356 497.356 283.189L496.783 288.685L491.797 336.827C491.757 337.228 491.8 337.632 491.925 338.015C492.05 338.397 492.253 338.749 492.521 339.048C492.79 339.347 493.117 339.586 493.483 339.75C493.85 339.914 494.246 339.999 494.647 340H504.523C505.156 340 505.772 339.79 506.273 339.402C506.775 339.014 507.135 338.47 507.296 337.855L513.115 315.609L523.602 275.522C524.091 273.657 524.13 271.701 523.716 269.817C523.303 267.933 522.448 266.175 521.223 264.688C519.998 263.202 518.438 262.029 516.672 261.268C514.906 260.507 512.984 260.179 511.067 260.311L477.196 262.641L479.561 253.143L462.403 252C460.139 255.257 458.695 259.017 458.196 262.957C457.696 266.897 458.156 270.9 459.535 274.622V274.622Z" fill="#2F2E41"/>
<path d="M466.261 249.121L466.031 249.094L460.713 223.234C460.668 223.009 456.32 200.704 469.648 189.043L469.88 187.447C469.94 187.039 470.088 186.648 470.315 186.302C470.542 185.955 470.842 185.662 471.195 185.441C471.547 185.221 471.944 185.079 472.358 185.025C472.772 184.971 473.192 185.006 473.591 185.128L486.147 188.98C486.858 189.196 487.456 189.676 487.817 190.32C488.178 190.963 488.273 191.719 488.083 192.43L486.862 197.022C488.555 198.987 508.477 222.708 501.538 240.984L498.43 253L466.261 249.121Z" fill="#186DFF"/>
<path d="M518.816 229.332C518.519 229.524 518.236 229.74 517.972 229.978L487.538 221.59L485.549 214L474 215.586L476.251 229.373C476.432 230.487 476.961 231.51 477.758 232.289C478.554 233.068 479.575 233.561 480.667 233.693L516.27 238.011C516.835 239.275 517.762 240.332 518.927 241.041C520.092 241.751 521.439 242.08 522.791 241.984C524.142 241.888 525.433 241.372 526.491 240.504C527.55 239.637 528.326 238.459 528.717 237.127C529.107 235.796 529.094 234.374 528.678 233.05C528.262 231.727 527.464 230.564 526.389 229.718C525.314 228.872 524.014 228.382 522.661 228.313C521.309 228.244 519.967 228.599 518.816 229.332H518.816Z" fill="#FFB8B8"/>
<path d="M485.511 221.147L471.218 222.977C470.811 223.029 470.398 222.993 470.007 222.872C469.615 222.751 469.254 222.548 468.949 222.276C468.644 222.004 468.401 221.67 468.237 221.296C468.073 220.923 467.993 220.518 468.001 220.111L468.273 205.837C468.017 203.767 468.597 201.682 469.886 200.037C471.175 198.392 473.067 197.322 475.149 197.062C477.23 196.801 479.331 197.372 480.99 198.648C482.649 199.925 483.73 201.803 483.998 203.87L487.893 217.565C488.004 217.957 488.029 218.368 487.966 218.771C487.903 219.174 487.753 219.558 487.527 219.898C487.301 220.238 487.004 220.525 486.656 220.741C486.308 220.957 485.918 221.095 485.511 221.147V221.147Z" fill="#186DFF"/>
<path d="M482 181C490.837 181 498 174.06 498 165.5C498 156.94 490.837 150 482 150C473.163 150 466 156.94 466 165.5C466 174.06 473.163 181 482 181Z" fill="#FFB8B8"/>
<path d="M481.005 167.036L479.026 163.484C475.276 178.54 481.899 191 481.899 191L456.195 179.199L456.439 175.012L453.896 177.857L450.241 175.872L449.759 173.157L447 173.83L457.07 155.821C466.842 138.684 481.051 145.227 481.051 145.227C503.654 144.168 500.894 166.146 500.894 166.146L481.005 167.036Z" fill="#2F2E41"/>
<path d="M302.364 284.03C305.984 281.709 301.582 268.384 292.532 254.268C283.483 240.151 273.212 230.588 269.593 232.909C265.973 235.229 270.375 248.554 279.424 262.671C288.474 276.787 298.745 286.35 302.364 284.03Z" fill="#3F3D56"/>
</svg>
