<svg width="287" height="361" viewBox="0 0 287 361" fill="none" xmlns="http://www.w3.org/2000/svg">
<g clip-path="url(#clip0)">
<path d="M69.44 76.9244H1.3963V16.2588H69.44V76.9244Z" fill="white"/>
<path d="M70.8365 78.3236H0V14.8594H70.8365V78.3236ZM2.79281 75.525H68.0437V17.6579H2.79281V75.525Z" fill="#CCCCCC"/>
<path d="M82.5292 328.036L75.6812 328.036L72.4232 301.568L82.5303 301.568L82.5292 328.036Z" fill="#FFB7B7"/>
<path d="M84.2754 334.688L62.195 334.687V334.407C62.1952 332.123 63.1007 329.933 64.7124 328.318C66.3241 326.703 68.51 325.796 70.7893 325.795H70.7899L84.2758 325.796L84.2754 334.688Z" fill="#2F2E41"/>
<path d="M146.434 323.822L139.745 325.293L130.898 300.141L140.77 297.97L146.434 323.822Z" fill="#FFB7B7"/>
<path d="M149.563 329.944L127.996 334.688L127.936 334.415C127.448 332.184 127.863 329.85 129.092 327.926C130.32 326.002 132.261 324.646 134.488 324.156L134.488 324.156L147.66 321.258L149.563 329.944Z" fill="#2F2E41"/>
<path d="M63.3096 235.059L29.4855 242.37C22.9984 230.116 21.5407 217.315 21.4866 205.21L55.3106 197.899C54.7879 210.765 57.5406 223.553 63.3096 235.059V235.059Z" fill="#186DFF"/>
<path d="M29.2028 211.995L28.9146 210.707L46.4925 207.149L46.7807 208.436L29.2028 211.995Z" fill="white"/>
<path d="M30.3556 217.143L30.0674 215.856L47.6453 212.298L47.9336 213.585L30.3556 217.143Z" fill="white"/>
<path d="M31.5085 222.292L31.2203 221.004L48.7982 217.446L49.0864 218.733L31.5085 222.292Z" fill="white"/>
<path d="M32.6614 227.441L32.3732 226.153L49.9511 222.595L50.2393 223.882L32.6614 227.441Z" fill="white"/>
<path d="M33.8142 232.589L33.526 231.302L51.1039 227.743L51.3922 229.03L33.8142 232.589Z" fill="white"/>
<path d="M140.429 205.025C140.957 204.234 141.306 203.337 141.452 202.397C141.597 201.457 141.535 200.497 141.269 199.583C141.004 198.67 140.542 197.826 139.916 197.111C139.29 196.395 138.515 195.826 137.646 195.444L137.952 180.577L128.982 178.187L128.843 199.188C128.298 200.694 128.324 202.347 128.915 203.836C129.506 205.324 130.621 206.543 132.049 207.263C133.477 207.982 135.119 208.152 136.663 207.739C138.208 207.327 139.547 206.361 140.429 205.025L140.429 205.025Z" fill="#FFB7B7"/>
<path d="M54.2656 66.81L19.6724 66.0252C16.2122 52.5934 17.77 39.8045 20.5313 28.0195L55.1243 28.8043C51.6253 41.1948 51.3298 54.2736 54.2656 66.81V66.81Z" fill="#186DFF"/>
<path d="M26.4579 36.4189L26.4764 35.0996L44.3984 35.7416L44.3794 37.0608L26.4579 36.4189Z" fill="white"/>
<path d="M26.3826 41.6947L26.401 40.376L44.323 41.018L44.304 42.3367L26.3826 41.6947Z" fill="white"/>
<path d="M26.3066 46.9711L26.3256 45.6519L44.2476 46.2938L44.2286 47.6131L26.3066 46.9711Z" fill="white"/>
<path d="M26.2312 52.247L26.2502 50.9277L44.1722 51.5697L44.1532 52.889L26.2312 52.247Z" fill="white"/>
<path d="M26.1558 57.5228L26.1748 56.2041L44.0962 56.8461L44.0778 58.1648L26.1558 57.5228Z" fill="white"/>
<path d="M70.7759 25.1418C77.7043 25.1418 83.3209 19.5136 83.3209 12.5709C83.3209 5.62817 77.7043 0 70.7759 0C63.8475 0 58.2309 5.62817 58.2309 12.5709C58.2309 19.5136 63.8475 25.1418 70.7759 25.1418Z" fill="#186DFF"/>
<path d="M70.3286 18.6959L65.5775 12.8766L66.3248 12.2642L70.2582 17.0823L77.1324 6.97998L77.9295 7.52458L70.3286 18.6959Z" fill="white"/>
<path d="M285.604 183.83H217.56V123.164H285.604V183.83Z" fill="white"/>
<path d="M287 185.229H216.164V121.765H287V185.229ZM218.956 182.431H284.207V124.564H218.956V182.431Z" fill="#E6E6E6"/>
<path d="M285.604 76.9244H217.56V16.2588H285.604V76.9244Z" fill="white"/>
<path d="M287 78.3236H216.164V14.8594H287V78.3236ZM218.956 75.525H284.207V17.6579H218.956V75.525Z" fill="#E6E6E6"/>
<path d="M177.242 183.83H109.199V123.164H177.242V183.83Z" fill="white"/>
<path d="M178.639 185.229H107.802V121.765H178.639V185.229ZM110.595 182.431H175.846V124.564H110.595V182.431Z" fill="#CCCCCC"/>
<path d="M69.44 183.83H1.3963V123.164H69.44V183.83Z" fill="white"/>
<path d="M70.8365 185.229H0V121.765H70.8365V185.229ZM2.79281 182.431H68.0437V124.564H2.79281V182.431Z" fill="#E6E6E6"/>
<path d="M177.242 76.9244H109.199V16.2588H177.242V76.9244Z" fill="white"/>
<path d="M178.639 78.3236H107.802V14.8594H178.639V78.3236ZM110.595 75.525H175.846V17.6579H110.595V75.525Z" fill="#E6E6E6"/>
<path d="M167.797 359.201L176.887 341.547C193.662 344.313 196.622 343.747 211.281 341.84L215.179 361C199.502 358.62 183.608 358.017 167.797 359.201V359.201Z" fill="#E6E6E6"/>
<path d="M205.721 356.018L205.436 346.092L206.477 346.131L206.762 356.057L205.721 356.018Z" fill="white"/>
<path d="M201.555 355.859L201.27 345.933L202.312 345.973L202.597 355.899L201.555 355.859Z" fill="white"/>
<path d="M197.39 355.701L197.105 345.775L198.146 345.815L198.431 355.741L197.39 355.701Z" fill="white"/>
<path d="M69.9889 181.616C69.9889 181.616 66.6876 182.939 69.9889 233.223L71.3094 315.264H84.5147L99.3779 203.77L117.528 255.718L134.034 317.249L147.24 313.941C147.24 313.941 133.374 189.556 121.489 181.616C109.605 173.677 69.9889 181.616 69.9889 181.616Z" fill="#2F2E41"/>
<path d="M96.5065 79.7674C104.086 79.7674 110.23 73.6105 110.23 66.0155C110.23 58.4206 104.086 52.2637 96.5065 52.2637C88.9272 52.2637 82.783 58.4206 82.783 66.0155C82.783 73.6105 88.9272 79.7674 96.5065 79.7674Z" fill="#FFB8B8"/>
<path d="M109.605 88.327C109.605 88.327 97.7199 82.3724 86.4954 86.3421C75.271 90.3119 69.3286 94.9433 69.3286 94.9433L76.5915 133.317L66.6876 184.924C66.6876 184.924 117.528 180.954 122.15 184.924C126.771 188.894 126.771 180.293 126.771 180.293L122.81 131.333L130.073 100.236L109.605 88.327Z" fill="#3F3D56"/>
<path d="M84.828 65.0666L87.7332 72.5043C88.9236 75.5522 90.2871 78.8131 93.0777 80.514C96.523 82.6142 101.124 81.5901 104.457 79.3151C107.455 77.269 109.756 74.3526 111.051 70.9578C112.347 67.5629 112.574 63.8521 111.703 60.3239C110.833 56.7956 108.905 53.6189 106.18 51.2203C103.455 48.8217 100.063 47.3163 96.4589 46.9061L96.3209 49.3955L93.2725 46.835C93.047 47.2226 92.7368 47.554 92.3652 47.8043C91.9936 48.0546 91.5702 48.2173 91.1269 48.2801C90.6835 48.343 90.2318 48.3043 89.8055 48.1671C89.3792 48.0299 88.9894 47.7976 88.6655 47.4878C89.4663 49.1512 88.5421 51.1798 87.2074 52.454C85.5676 54.0194 80.8778 55.9006 81.0725 58.6988C81.2023 60.5662 84.0722 63.1314 84.828 65.0666Z" fill="#2F2E41"/>
<path d="M59.4435 205.905C60.1722 205.295 60.7586 204.533 61.1614 203.671C61.5642 202.81 61.7736 201.87 61.7749 200.919C61.7762 199.968 61.5693 199.027 61.1688 198.165C60.7683 197.302 60.184 196.538 59.457 195.927L63.9166 181.744L55.9764 176.926L49.9592 197.044C49.0146 198.336 48.5757 199.93 48.7258 201.525C48.8759 203.119 49.6045 204.603 50.7736 205.695C51.9426 206.788 53.4709 207.412 55.0688 207.451C56.6667 207.489 58.2233 206.939 59.4435 205.905V205.905Z" fill="#FFB7B7"/>
<path d="M73.9504 94.9434H69.3286C69.3286 94.9434 62.0657 99.5747 62.0657 106.191C62.0657 112.807 51.5015 190.217 51.5015 190.217L62.726 192.202L72.6299 137.949L79.8928 123.393L73.9504 94.9434Z" fill="#3F3D56"/>
<path d="M117.528 100.236H130.073C130.073 100.236 134.034 104.206 136.015 113.469C137.996 122.732 139.977 159.121 139.977 159.121L138.656 192.202H128.752L127.432 149.197L120.829 121.408L117.528 100.236Z" fill="#3F3D56"/>
<path d="M214.431 335.303H1.61856C1.47042 335.303 1.32834 335.244 1.22359 335.139C1.11884 335.034 1.06 334.892 1.06 334.743C1.06 334.595 1.11884 334.452 1.22359 334.347C1.32834 334.242 1.47042 334.183 1.61856 334.183H214.431C214.579 334.183 214.721 334.242 214.826 334.347C214.93 334.452 214.989 334.595 214.989 334.743C214.989 334.892 214.93 335.034 214.826 335.139C214.721 335.244 214.579 335.303 214.431 335.303Z" fill="#CBCBCB"/>
</g>
<defs>
<clipPath id="clip0">
<rect width="287" height="361" fill="white"/>
</clipPath>
</defs>
</svg>
