<svg width="111" height="52" viewBox="0 0 111 52" fill="none" xmlns="http://www.w3.org/2000/svg">
<path d="M73.5087 40.9837V17.3125H69.3333V13.7076H73.5087V10.9094C73.5087 7.98514 74.2657 5.72474 75.7795 4.12817C77.2934 2.53161 79.434 1.73332 82.2013 1.73332C83.2431 1.73332 84.2768 1.87617 85.3023 2.16187L85.0582 5.94322C84.2931 5.79196 83.4792 5.71634 82.6164 5.71634C81.1514 5.71634 80.02 6.1617 79.2224 7.05241C78.4248 7.92632 78.0259 9.18677 78.0259 10.8338V13.7076H83.6664V17.3125H78.0259V40.9837H73.5087Z" fill="#186DFF"/>
<path d="M98.2122 34.152L104.365 13.7076H109.2L98.5784 45.1936C96.9343 49.7312 94.3217 52 90.7404 52L89.8858 51.9244L88.201 51.5966V47.8153L89.4219 47.9161C90.9521 47.9161 92.1404 47.5968 92.9868 46.9582C93.8496 46.3196 94.5577 45.1516 95.1112 43.4542L96.1123 40.6812L86.6872 13.7076H91.6195L98.2122 34.152Z" fill="#186DFF"/>
<path d="M4.63415 39.2504H0V0.529388H4.63415V39.2504Z" fill="black"/>
<path d="M11.9665 25.3602C11.9665 22.6881 12.4842 20.2848 13.5196 18.1505C14.5716 16.0161 16.0245 14.3691 17.8782 13.2095C19.7485 12.0499 21.8777 11.4701 24.2658 11.4701C27.9564 11.4701 30.9373 12.7557 33.2084 15.327C35.4963 17.8984 36.6402 21.3184 36.6402 25.5871V25.9148C36.6402 28.5702 36.1309 30.9566 35.1122 33.0742C34.1102 35.1749 32.6657 36.8135 30.7786 37.9899C28.9083 39.1663 26.754 39.7545 24.3159 39.7545C20.6419 39.7545 17.6611 38.4689 15.3732 35.8976C13.1021 33.3262 11.9665 29.923 11.9665 25.6879V25.3602ZM16.6257 25.9148C16.6257 28.9399 17.3187 31.3684 18.7048 33.2002C20.1076 35.0321 21.9779 35.948 24.3159 35.948C26.6705 35.948 28.5409 35.0236 29.9269 33.175C31.313 31.3095 32.0061 28.7046 32.0061 25.3602C32.0061 22.3688 31.2963 19.9487 29.8769 18.1C28.4741 16.2346 26.6037 15.3018 24.2658 15.3018C21.9779 15.3018 20.1326 16.2178 18.7298 18.0496C17.3271 19.8815 16.6257 22.5032 16.6257 25.9148Z" fill="black"/>
<path d="M41.6322 25.3854C41.6322 21.1335 42.6091 17.7555 44.563 15.2514C46.5169 12.7305 49.1053 11.4701 52.3283 11.4701C55.6349 11.4701 58.2149 12.6465 60.0686 14.9993L60.2941 11.9743H64.5274V38.5949C64.5274 42.1242 63.4837 44.9056 61.3962 46.9391C59.3255 48.9726 56.5366 49.9894 53.0297 49.9894C51.0759 49.9894 49.1637 49.5692 47.2934 48.7289C45.423 47.8886 43.9952 46.7374 43.0099 45.2753L45.4147 42.4771C47.4019 44.9476 49.8317 46.1828 52.7041 46.1828C54.9585 46.1828 56.712 45.5442 57.9645 44.2669C59.2336 42.9897 59.8682 41.1914 59.8682 38.8722V36.5278C58.0146 38.6789 55.4846 39.7545 52.2782 39.7545C49.1053 39.7545 46.5336 38.4689 44.563 35.8976C42.6091 33.3262 41.6322 29.8222 41.6322 25.3854ZM46.2914 25.9148C46.2914 28.9903 46.9176 31.4104 48.1701 33.175C49.4226 34.9228 51.176 35.7967 53.4305 35.7967C56.3529 35.7967 58.4988 34.4607 59.8682 31.7885V19.3353C58.4487 16.7303 56.3195 15.4279 53.4806 15.4279C51.2261 15.4279 49.4643 16.3102 48.1952 18.0748C46.926 19.8395 46.2914 22.4528 46.2914 25.9148Z" fill="black"/>
<path d="M74.3182 39.2504V15.5791H70.0347V11.9743H74.3182V9.17606C74.3182 6.25182 75.0947 3.99142 76.6478 2.39485C78.2008 0.798284 80.3968 0 83.2358 0C84.3046 0 85.365 0.142851 86.4171 0.428552L86.1666 4.2099C85.3817 4.05864 84.5467 3.98302 83.6616 3.98302C82.1587 3.98302 80.998 4.42837 80.1798 5.31909C79.3615 6.193 78.9523 7.45345 78.9523 9.10043V11.9743H84.7387V15.5791H78.9523V39.2504H74.3182Z" fill="black"/>
<path d="M99.6611 32.4187L105.974 11.9743H110.933L100.037 43.4603C98.3502 47.9979 95.6699 50.2667 91.9959 50.2667L91.1192 50.191L89.3908 49.8633V46.082L90.6433 46.1828C92.213 46.1828 93.4321 45.8635 94.3005 45.2249C95.1856 44.5863 95.912 43.4182 96.4798 41.7208L97.5068 38.9478L87.8377 11.9743H92.8977L99.6611 32.4187Z" fill="black"/>
</svg>
